<?xml version="1.0" encoding="UTF-8"?>
<svg width="135" height="30" version="1.1" viewBox="0 0 39.291 8.7312" xmlns="http://www.w3.org/2000/svg">
    <g transform="translate(-3.8467 -79.307)">
        <g aria-label="Peter's homepage">
            <g transform="matrix(.93333 0 0 .93333 2.0014 5.5781)" stroke-width=".46461px">
                <path d="m8.9593 85.262-0.00556-0.0055q-0.011161 0.0055-0.027887 0.0166-0.016726 0.01106-0.027887 0.0166l-0.055754-0.02799q0.44602-0.27877 0.81957-0.61886 0.37355-0.34567 0.62444-0.80285l-0.13381-0.03345q-0.28434 0.61328-0.80842 1.0036-0.5185 0.39027-1.2043 0.56868v-0.08919l-0.089205-0.08919q0.35682-0.15053 0.60771-0.34567 0.25089-0.20071 0.41257-0.43488 0.16726-0.23972 0.25646-0.50178 0.089205-0.26204 0.13381-0.54081-0.12266-0.15053-0.20071-0.35125-0.07248-0.20627-0.07248-0.47948 0-0.30106 0.16726-0.59099-0.08921-0.17846-0.21744-0.34571-0.12823-0.16726-0.28434-0.30106-0.15611-0.1394-0.34009-0.23416-0.17841-0.10035-0.37355-0.13937 0.07248 0.25088 0.19514 0.47948 0.12266 0.223 0.26762 0.44602-0.00556-0.0669-0.016726-0.1338-0.011161-0.07247-0.016726-0.12824 0-0.06134 0.011161-0.09479 0.016726-0.03902 0.055754-0.03902 0.039029 0 0.089205 0.01659 0.055754 0.01106 0.055754 0.07247-0.11708 0.02799-0.1115 0.12824 0.00556 0.10035 0.027887 0.20627 0.07248-0.0669 0.083632-0.18958 0.050177 0.05018 0.11708 0.10035 0.066906 0.05018 0.061329 0.11152-0.011161 0.07247-0.055755 0.15053-0.044603 0.07806-0.089205 0.1561 0.15053 0.26204 0.25646 0.55195 0.10593 0.28434 0.11708 0.63001 0.011161 0.35682-0.083631 0.62444-0.089206 0.26205-0.23416 0.45717-0.13938 0.19514-0.30664 0.34009-0.16726 0.14496-0.30664 0.26761l-0.061329-0.06134q0.17283-0.14496 0.32894-0.28433 0.15611-0.13937 0.27876-0.32335 0.12266-0.18398 0.19514-0.4293 0.07248-0.25088 0.078053-0.60771 0.00556-0.33452-0.11708-0.62443-0.12265-0.28992-0.30106-0.57425-0.17283-0.28993-0.36797-0.59656-0.18956-0.30663-0.32894-0.67461h-0.027887q-0.23416 0-0.4516 0.03345t-0.44045 0.07806q-0.22301 0.03902-0.45718 0.07806-0.23416 0.03902-0.49063 0.04461-0.15053 0.0055-0.31222-0.02245-0.16168-0.03345-0.30107-0.10592-0.13938-0.07806-0.22859-0.19514-0.089206-0.12264-0.089206-0.2955 0-0.13937 0.10593-0.27321 0.1115-0.1338 0.35124-0.12824 0.13938 0.0055 0.28434 0.05018 0.14496 0.03902 0.28434 0.03345 0.094779 0 0.14496-0.03345 0.055754-0.03902 0.1115-0.11152l0.061329 0.06134q-0.033451 0.04461-0.061329 0.10035-0.02229 0.05574-0.066903 0.10592-0.044603 0.04461-0.12266 0.07806-0.078054 0.03345-0.21744 0.03345-0.12823 0-0.26204-0.03902-0.13381-0.04461-0.26204-0.05018-0.1115-0.0055-0.18956 0.05574-0.078054 0.05574-0.07248 0.1338 0.00556 0.10035 0.055754 0.17842 0.050177 0.07247 0.12266 0.12264 0.078054 0.05018 0.16726 0.07247 0.089205 0.02245 0.16726 0.02245 0.28434 0 0.50735-0.08919 0.22301-0.08919 0.45718-0.20071 0.23416-0.11151 0.51293-0.20627 0.28434-0.10036 0.69134-0.11152v-0.07806q0-0.18398 0.094779-0.35682 0.10036-0.17282 0.26762-0.30106 0.16726-0.1338 0.3847-0.21187 0.22301-0.07806 0.46833-0.07806 0.15611 0 0.32894 0.06134 0.17283 0.05574 0.31779 0.16726t0.23974 0.26761q0.09478 0.1561 0.08921 0.35124-0.0056 0.09479-0.03903 0.18958-0.03345 0.08919-0.06133 0.18398 0.28434-0.11151 0.60771-0.11151 0.28992 0 0.57426 0.05574 0.28992 0.05018 0.5408 0.17842 0.17841-0.16169 0.29549-0.28434 0.12266-0.12264 0.12266-0.28433 0-0.11708-0.08363-0.22303-0.08363-0.11151-0.25646-0.11151-0.1115 0-0.20071 0.08919-0.08921 0.08363-0.10036 0.23416-0.0056 0.05018-0.02789 0.11151-0.01673 0.06134-0.07248 0.0669-0.02229 0.0055-0.05018-0.03345-0.02229-0.03902-0.02229-0.06134 0-0.05574 0.06133-0.09479 0.06133-0.04461 0.05575-0.10592-0.0056-0.07247 0.02789-0.12824 0.03903-0.05574 0.08921-0.08919 0.05575-0.03902 0.12266-0.05574 0.0669-0.02245 0.12266-0.02245 0.23974 0 0.32894 0.15053 0.09478 0.14497 0.09478 0.2955 0 0.1338-0.1115 0.28993-0.1115 0.15053-0.27319 0.32894 0.25646 0.15053 0.44602 0.3847 0.18956 0.22859 0.26762 0.55753 0.08363-0.04461 0.15611-0.09479 0.07248-0.05574 0.07248-0.13937 0-0.06134-0.02789-0.08363-0.02789-0.02799-0.06133-0.02799-0.05018 0-0.07248 0.01106-0.02229 0.01106-0.0446 0.0166-0.02229-0.07247 0.02789-0.11708 0.05018-0.05018 0.10036-0.05574 0.09478-0.0055 0.14496 0.07247 0.05018 0.07247 0.05018 0.13937 0 0.07247-0.03345 0.12264-0.02789 0.05018-0.07805 0.08363-0.05018 0.03345-0.11151 0.06134-0.06133 0.02799-0.11708 0.05574 0.0056 0.02798 0.01116 0.06134 0.0056 0.03345 0.01116 0.0669 0.0446-0.02245 0.07248-0.02245 0.11151 0 0.20071 0.06134 0.0892 0.05574 0.0892 0.17282 0 0.05018-0.02789 0.11151-0.02229 0.06134-0.07805 0.06134-0.02789 0-0.06133-0.01106-0.02789-0.0166-0.02789-0.04461 0-0.05018 0.0446-0.06134 0.0446-0.0166 0.0446-0.06134 0-0.03345-0.02789-0.0669-0.02229-0.03902-0.06133-0.06134-0.03345-0.02799-0.07805-0.03345-0.03903-0.01106-0.07806 0.01106 0.0056 0.05018 0.0056 0.10592 0.0056 0.05574 0.0056 0.11151 0 0.32335-0.09478 0.64116-0.08921 0.31779-0.30664 0.56868-0.21186 0.25088-0.56868 0.41257-0.35682 0.15613-0.88648 0.15613-0.05018 0-0.10593 0-0.05018 0-0.10593-0.0055-0.08363 0.14496-0.22301 0.30106-0.13381 0.15053-0.30107 0.30106-0.16168 0.15053-0.35124 0.28993-0.18956 0.13937-0.3847 0.25088l-0.011161-0.0055-0.083631 0.0669q0.28434-0.1561 0.57983-0.33452 0.30107-0.17842 0.57983-0.33452 0.28434-0.1561 0.53523-0.25648 0.25089-0.10035 0.44045-0.10035 0.27319 0 0.52966 0.12824 0.1115 0.05574 0.22859 0.12264 0.11708 0.0669 0.22859 0.0669 0.06133 0 0.12823-0.05574 0.07248-0.06134 0.0669-0.12264-0.0056-0.05018-0.05018-0.07247-0.03903-0.02245-0.08363-0.02245t-0.07805 0.05018q-0.02789 0.05018-0.07248 0.05018-0.01116 0-0.02789-0.02245-0.01673-0.02799-0.01673-0.04461 0-0.05574 0.0669-0.10035 0.07248-0.04461 0.13381-0.04461 0.08363 0 0.15611 0.0669 0.07805 0.06134 0.07805 0.1338 0 0.03902-0.02229 0.08919-0.02229 0.05018-0.06133 0.09479-0.03903 0.04461-0.08363 0.07806t-0.08921 0.03345q-0.08363 0-0.18398-0.05574 0.1115 0.12264 0.17284 0.28993 0.0669 0.16726 0.0669 0.37912 0 0.15053-0.05575 0.31222-0.05018 0.16169-0.15053 0.2955-0.10036 0.1338-0.24531 0.223-0.14496 0.08363-0.32337 0.08363-0.14496 0-0.30664-0.02245-0.16168-0.02799-0.30107-0.10036-0.13381-0.07806-0.22301-0.21187-0.08921-0.1338-0.08921-0.3624 0-0.08919 0.03345-0.17842 0.03345-0.09479 0.09478-0.17285 0.06133-0.07806 0.15611-0.12824 0.09478-0.05018 0.21186-0.05018 0.0669 0 0.12266 0.04461 0.05575 0.03902 0.10593 0.08919 0.05576 0.05018 0.11708 0.08919 0.06133 0.03902 0.13938 0.03902 0.09478-0.0055 0.12823-0.09479 0.03345-0.09479 0.0892-0.13937 0.02789 0.09479 0.02789 0.16726 0 0.11708-0.09478 0.23972-0.0892 0.12264-0.20071 0.12264-0.10036 0-0.17284-0.05018t-0.13938-0.10592q-0.06133-0.06134-0.12266-0.11151-0.06133-0.05574-0.14496-0.05574-0.1115-0.0055-0.18956 0.10592-0.07248 0.11152-0.07248 0.21187 0 0.1338 0.06133 0.23972 0.06691 0.10036 0.16726 0.17285 0.10593 0.0669 0.22859 0.10592 0.12266 0.03902 0.23416 0.03902 0.15611 0 0.30107-0.07247 0.15053-0.07247 0.26204-0.18955 0.11708-0.11708 0.18956-0.26204 0.07248-0.14497 0.07248-0.28993 0-0.20071-0.08921-0.36797-0.0892-0.17285-0.23416-0.2955-0.13938-0.12824-0.31779-0.20071-0.17283-0.07247-0.34009-0.07247-0.16726 0-0.44602 0.12824-0.27319 0.12824-0.60214 0.31222-0.32894 0.17842-0.68576 0.36797-0.35124 0.18398-0.66904 0.30106zm1.405-1.405q-0.22859 0.3847-0.52965 0.69134 0.16168-0.12824 0.31779-0.28433 0.16168-0.16169 0.30107-0.39027-0.02229-0.0055-0.0446-0.0055-0.02229-0.0055-0.0446-0.01106zm-2.2803-3.7355h-0.00556q-0.02229 0.06134-0.027887 0.11151-0.00556 0.02245-0.011161 0.04461 0 0.02245 0 0.05018h0.011161q0.31222 0 0.59098 0.07806 0.016726-0.23972 0.12823-0.41815 0.1115-0.17842 0.32894-0.18398 0.12266-0.0055 0.25089 0.07247 0.13381 0.07806 0.13381 0.23416 0 0.05574-0.044603 0.10592-0.039029 0.05018-0.044603 0.11151-0.00556 0.05018 0.027887 0.07247 0.039029 0.0166 0.061329 0.04461-0.078054 0-0.12823-0.03902-0.050177-0.03902-0.050177-0.08919 0-0.0669 0.044603-0.11152 0.050177-0.05018 0.044603-0.10592-0.00556-0.10592-0.10593-0.15609-0.094779-0.05018-0.18398-0.05018-0.16726 0.0055-0.26762 0.16169-0.094779 0.1561-0.11708 0.37912 0.21744 0.07806 0.40142 0.19514 0.18398 0.11708 0.32894 0.26204 0.20071-0.19514 0.4516-0.30666 0.039029-0.10592 0.083631-0.20627 0.044603-0.10035 0.050177-0.21187 0.0056-0.1394-0.039025-0.25088-0.044603-0.11151-0.12266-0.20071v0.02245q0.016726 0.04461 0.027887 0.08919 0.016726 0.04461 0.016726 0.10035 0 0.05574-0.027887 0.12264l-0.055754-0.03902q0.027887-0.02799 0.027887-0.08363 0-0.03345-0.00556-0.06134-0.00556-0.03345-0.016726-0.05574-0.016726 0.02798-0.044603 0.05018-0.027887 0.01659-0.055755 0.03345-0.039029-0.16169-0.16726-0.21743-0.02229-0.10592 0.02229-0.16169-0.23416-0.11708-0.49063-0.11708-0.41815 0-0.69691 0.22859 0.083632-0.02798 0.17283-0.02798 0.039029 0 0.094779 0.01106 0.061329 0.0055 0.078054 0.05018 0.02229 0.06134 0 0.08919-0.016726 0.02798-0.039029 0.02798-0.078053 0.0055-0.083631-0.03902 0-0.05018-0.039029-0.05018-0.20071 0-0.31222 0.11708-0.1115 0.11151-0.19514 0.31779zm1.8399 3.6017-0.011161 0.0055q-0.19514 0.4962-0.61886 0.9032-0.41815 0.407-1.1541 0.65789 0.73037-0.17842 1.2098-0.57983 0.48505-0.407 0.73037-0.9255-0.03903-0.01106-0.07806-0.02798-0.039027-0.0166-0.078053-0.03345zm0.20071-1.2266q0.0056 0.25645-0.02789 0.51851-0.03345 0.25648-0.10593 0.50178 0.039028 0.0166 0.08363 0.03902 0.0446 0.0166 0.08921 0.02799 0.20629-0.5408 0.19514-1.1151-0.0056-0.21187-0.02789-0.41814-0.02229-0.21187-0.11708-0.43488-0.13938 0-0.26204 0.05018 0.083628 0.21743 0.12266 0.4293 0.0446 0.21187 0.05018 0.40142zm0.4739-0.55196q-0.01116-0.1338-0.10036-0.21187-0.08363-0.08363-0.18956-0.10592 0.10036 0.21743 0.12823 0.46833 0.02789 0.24532 0.01116 0.49063-0.03345 0.54638-0.20629 1.0147 0.03903 0.01106 0.07805 0.0166 0.03903 0.0055 0.07805 0.01659 0.18398-0.35682 0.30107-0.75824-0.0669-0.03902-0.09478-0.12824-0.02789-0.09479-0.03903-0.21187-0.01116-0.13937 0.01116-0.30106 0.02229-0.16169 0.02229-0.28993zm0.31222 1.4775q0.22301-0.15613 0.39027-0.3401 0.16726-0.18398 0.25646-0.41257-0.01116-0.06134-0.03345-0.10035-0.25089 0.24532-0.46833 0.5185-0.21186 0.26761-0.37355 0.56868h0.02789q0.28992-0.0055 0.52408-0.13937 0.23974-0.13937 0.407-0.35124 0.16726-0.21187 0.25646-0.46833 0.09478-0.25645 0.09478-0.50178v-0.0669q-0.0669 0.06134-0.13381 0.12264-0.0669 0.06134-0.13381 0.12264-0.02789 0.34009-0.21744 0.60213-0.18956 0.26204-0.53523 0.4739zm0.46275-2.1186q0.16726 0.18398 0.25646 0.43488 0.09478 0.25088 0.10036 0.47948 0.06133-0.05574 0.12266-0.11152 0.0669-0.05574 0.12823-0.11152-0.03345-0.27877-0.15053-0.50736-0.1115-0.23416-0.27876-0.407-0.0446 0.05574-0.08921 0.11152-0.0446 0.05574-0.08921 0.11151zm-0.89205 2.3416q0.02789 0.0055 0.05018 0.01106 0.02229 0 0.0446 0 0.37354-0.63558 0.88647-1.1764-0.05575-0.07247-0.10036-0.15053-0.0446-0.07806-0.01673-0.22859 0.13381-0.0166 0.27319 0.12264-0.03903-0.10592-0.12823-0.20071-0.08921-0.09479-0.18956-0.08919-0.02229 0-0.0446-0.0166-0.02229-0.02245-0.02229-0.04461 0-0.05574 0.05018-0.05574 0.08921 0 0.18398 0.07247 0.10036 0.0669 0.16168 0.17842-0.02789-0.17285-0.1115-0.35682-0.08363-0.18398-0.20629-0.32338-0.09478 0.1338-0.18398 0.28434-0.08921 0.15053-0.15053 0.31222 0.01116 0.03902 0.01673 0.07806 0.0056 0.03345 0.0056 0.07806 0 0.07247-0.02229 0.15609-0.01673 0.07806-0.01673 0.15053 0 0.06134 0.02229 0.11708 0.02789 0.05574 0.10593 0.04461 0.06133 0.02799 0.05575 0.08363-0.07805 0.11708-0.16726 0.16169-0.08363 0.04461-0.18398 0.04461-0.06133 0.20071-0.13938 0.3847-0.07806 0.18398-0.17284 0.3624zm-0.25646-2.2357q0.19514-0.0055 0.407 0.12264 0.21744 0.12824 0.31222 0.35125 0.12823-0.35682 0.27319-0.59099-0.19514-0.16726-0.407-0.16726-0.02789 0-0.06133 0.02798-0.02789 0.02245-0.07248 0.02245-0.02229 0-0.06691-0.01106-0.0446-0.0166-0.0446-0.04461 0-0.04461 0.07806-0.0669 0.07805-0.02245 0.13938-0.02245 0.13938 0 0.26204 0.05018 0.12266 0.05018 0.22301 0.12824 0.0446-0.06134 0.08363-0.11708 0.03903-0.06134 0.08363-0.11152-0.36797-0.30106-0.814-0.30106-0.37912 0.0055-0.63559 0.07806-0.25089 0.0669-0.44045 0.22859 0.10036 0.11152 0.17841 0.23972 0.083631 0.12824 0.14496 0.25648 0.11708-0.05018 0.24531-0.0669-0.01672-0.02798-0.03903-0.05574-0.01673-0.03345-0.03903-0.0669h0.03345q0.02789 0.02799 0.05576 0.06134 0.02789 0.02798 0.05018 0.05574zm-0.71364 1.1374q0-0.17282-0.07248-0.39027-0.10036 0.20071-0.10036 0.37912 0 0.16726 0.039029 0.30666 0.039029 0.13937 0.1115 0.25088 0.011161-0.13937 0.016726-0.27321 0.00556-0.13937 0.00556-0.27321zm-1.1374 2.8323q0.12266 0.0055 0.23974 0.01659 0.12266 0.01106 0.24531 0.01106 0.15611 0 0.31222-0.02799 0.15611-0.02798 0.31222-0.02798 0.18398 0 0.39027 0.12264 0.20629 0.11708 0.39585 0.31779 0.11708 0.12824 0.23416 0.30106 0.12266 0.17282 0.23974 0.32894 0.12266 0.16169 0.24531 0.27321 0.12823 0.11152 0.26204 0.11152 0.10593 0 0.21744-0.0669 0.11708-0.06134 0.11708-0.18958 0-0.05574-0.03903-0.11708-0.03345-0.06134-0.09478-0.06134t-0.12266 0.02799q-0.06133 0.02798-0.13938 0.02798-0.0669 0-0.13381-0.03345-0.06133-0.02799-0.10593-0.05574l0.0446-0.07247q0.0446 0.02245 0.08921 0.06134 0.0446 0.04461 0.10036 0.04461 0.07248 0 0.12823-0.03345 0.05575-0.02799 0.11708-0.02799 0.08921 0 0.16168 0.08363 0.07806 0.08919 0.07806 0.17842 0 0.16169-0.13938 0.22859-0.13381 0.0669-0.25646 0.0669-0.12823 0-0.24531-0.07247-0.1115-0.07247-0.21744-0.18398-0.10036-0.11151-0.20071-0.24532-0.10036-0.1338-0.20071-0.25648 0.01673 0.07247 0.02789 0.15053t0.01116 0.16726q0 0.20627-0.07248 0.41257-0.0669 0.20627-0.21186 0.36797 0 0.02798-0.0056 0.05018 0 0.02245-0.0056 0.05018-0.02229 0.12824-0.10593 0.223-0.078054 0.09479-0.22859 0.09479-0.033451 0-0.066903-0.0055-0.027887 0-0.055754-0.0055 0.055754 0.07247 0.055754 0.16726 0 0.10592-0.07248 0.17842-0.066902 0.07806-0.16168 0.07806-0.094779 0-0.16168-0.07806-0.066903-0.07247-0.066903-0.17842 0-0.11708 0.07248-0.18958 0.027887-0.03901 0.083632-0.05574h-0.094779q-0.15611 0-0.31779-0.0669-0.15611-0.0669-0.28434-0.18955-0.12266-0.11708-0.20629-0.28433-0.078053-0.16169-0.078053-0.35125 0-0.02798 0.011161-0.08363-0.089205-0.04461-0.18956-0.04461-0.20071 0-0.20071 0.16169 0 0.04461 0.02229 0.09479t0.033451 0.09479q-0.10036-0.03345-0.13938-0.10592-0.033451-0.07247-0.033451-0.14497 0-0.09479 0.10593-0.14497 0.1115-0.04461 0.20629-0.04461 0.10036 0 0.21186 0.05574 0.061329-0.18958 0.18956-0.30666-0.02229-0.0055-0.050177-0.0055t-0.050177-0.0055q-0.22859-0.03345-0.48505-0.11152-0.25646-0.078059-0.4739-0.21187-0.21744-0.13937-0.3624-0.34009-0.13938-0.20627-0.13938-0.49063 0-0.08919 0.033451-0.17842 0.033451-0.09479 0.094779-0.16726 0.066903-0.07247 0.16168-0.11708 0.094779-0.05018 0.21744-0.04461 0.07248 0 0.11708 0.02245 0.050177 0.0166 0.083632 0.03902 0.033451 0.0166 0.066906 0.03902 0.039029 0.0166 0.089205 0.0166 0.044603 0 0.066903-0.05574 0.027887-0.06134 0.089205-0.06134 0.027887 0 0.039029 0.03345 0.016726 0.03345 0.016726 0.05574 0 0.08919-0.094779 0.18958-0.089206 0.09479-0.18956 0.10035-0.12266 0.0055-0.23416-0.05574-0.1115-0.06134-0.23416-0.06134-0.083632 0-0.15053 0.08363-0.066902 0.07806-0.055754 0.15053 0.027887 0.17285 0.17284 0.26761 0.15053 0.08919 0.35124 0.13937 0.20629 0.05018 0.4293 0.07247 0.22859 0.0166 0.407 0.04461 0.27319 0.03902 0.55196 0.1338 0.27876 0.09479 0.4962 0.25088 0.22301 0.15609 0.36239 0.36797 0.14496 0.21743 0.14496 0.49063 0 0.0669 0.0056 0.1338 0.0056 0.07247 0.01116 0.14496 0.09478-0.14496 0.13938-0.30662 0.05018-0.1561 0.05018-0.31222 0-0.18958-0.07248-0.36797-0.0669-0.17842-0.18956-0.31779-0.12266-0.13937-0.27876-0.223-0.15611-0.08363-0.33452-0.08363-0.14496 0-0.30107 0.01659-0.15053 0.0166-0.29549 0.0166-0.12823 0-0.25646-0.01106-0.12823-0.0166-0.25646-0.02245zm1.7395 1.8845q-0.09478 0.08919-0.21744 0.15609-0.12266 0.0669-0.28434 0.09479 0.039029 0.03902 0.094779 0.04461 0.055754 0.0055 0.11708 0.0055 0.089206 0 0.16168-0.0669 0.07248-0.0669 0.11151-0.16169 0.01116-0.01659 0.01116-0.03345 0-0.01659 0.0056-0.03902zm-0.75267 0.21743q0.02229 0 0.050177 0t0.055755-0.0055q-0.00556-0.0055-0.011161-0.0166-0.00556-0.01106-0.011161-0.02245-0.15611-0.03348-0.27319-0.12827-0.11708-0.09479-0.21744-0.21743-0.094779-0.12264-0.18398-0.25088-0.089205-0.12264-0.18956-0.20627v0.0669q0 0.1561 0.07248 0.2955 0.07248 0.13937 0.18398 0.24532 0.1115 0.11152 0.25089 0.17282 0.13938 0.0669 0.27319 0.0669zm-0.57426-1.2879q-0.078054 0.07247-0.12823 0.16726-0.044603 0.09479-0.066903 0.18954 0.10593 0.08363 0.20071 0.20627 0.094779 0.12264 0.18956 0.23976 0.10036 0.12264 0.20629 0.223 0.1115 0.10036 0.23974 0.14497-0.00556-0.02798-0.00556-0.08919 0-0.1338 0.1115-0.26761 0.1115-0.12824 0.22301-0.1338 0.066902-0.0055 0.12823 0.02245 0.066903 0.02798 0.12823 0.05574 0-0.03345-0.0056-0.05018-0.027888-0.15609-0.13938-0.26761-0.10593-0.11151-0.24531-0.18958-0.044603 0.07806-0.10036 0.12264-0.055754 0.05018-0.10593 0.08919-0.044603 0.03901-0.078053 0.07247-0.033451 0.03345-0.033451 0.07806 0 0.03345 0.039029 0.06134 0.044603 0.02799 0.078054 0.02799 0.039029 0 0.055754-0.03345 0.02229-0.02798 0.094779-0.02245 0.011161 0.06134-0.055755 0.08919-0.061329 0.02799-0.10593 0.02799-0.078054 0-0.13381-0.05018-0.055754-0.05018-0.055754-0.12824 0-0.11152 0.094779-0.21187 0.10039-0.10036 0.16729-0.18955-0.15611-0.0669-0.34009-0.11151-0.18398-0.04461-0.35682-0.07247zm1.1987 0.88648 0.016726-0.05018q-0.061329-0.027989-0.12266-0.061339-0.061329-0.02799-0.12266-0.03345-0.039029 0-0.083632 0.02799-0.044603 0.03345-0.083631 0.08363-0.033451 0.05018-0.061329 0.11152-0.027887 0.06134-0.027887 0.12264 0 0.05574 0.016726 0.10592 0.02229 0.0055 0.061329 0.0055 0.033451 0 0.066906-0.01106 0.033451-0.01106 0.061329-0.02245-0.016726-0.18398 0.094779-0.34567 0.07248 0.05574 0.18398 0.0669zm-0.44602 0.54081q-0.055754 0-0.11708 0.05018-0.055754 0.05574-0.055754 0.12824 0 0.07247 0.055754 0.11152 0.061329 0.04461 0.11708 0.04461 0.055754 0 0.094779-0.05018 0.044603-0.04461 0.044603-0.11708 0-0.07247-0.044603-0.12264-0.039029-0.04461-0.094779-0.04461zm-0.99241-3.4901q0 0.15053-0.044603 0.28433-0.039029 0.1338-0.1115 0.24532 0.12823-0.16726 0.16726-0.37912 0.044603-0.21187 0.050177-0.39027 0.00556-0.49063-0.18398-0.82515-0.18956-0.33452-0.49063-0.55196-0.30107-0.21743-0.68019-0.32894-0.37912-0.11708-0.74709-0.16169-0.17841 0.1338-0.30107 0.32894-0.11708 0.18955-0.12823 0.41257 0.13938-0.02245 0.27876-0.03345 0.13938-0.01106 0.27876-0.01106 0.039029-0.17842 0.18398-0.27877 0.15053-0.10035 0.35682-0.10035 0.22301 0 0.37355 0.0669 0.15053 0.06134 0.24531 0.16169 0.094779 0.10036 0.13938 0.2286 0.044603 0.12264 0.050177 0.25648 0.23974 0.15609 0.40142 0.41815 0.16168 0.26204 0.16168 0.65789zm-0.31779 0.72479-0.044603-0.05018q0.12823-0.12824 0.20071-0.30662 0.078054-0.18398 0.078054-0.35682 0-0.36239-0.13381-0.60213-0.13381-0.23972-0.34567-0.39027-0.00556 0.19514-0.094779 0.35124-0.089205 0.15053-0.22301 0.26204-0.12823 0.10592-0.28992 0.16169-0.15611 0.05574-0.30664 0.05574-0.25089-0.0055-0.45718-0.10035-0.20629-0.09479-0.35682-0.24532-0.15053-0.15053-0.24531-0.3401-0.089205-0.19514-0.1115-0.39027-0.13381 0.02245-0.26762 0.03902-0.12823 0.01106-0.26204 0.01106-0.23416 0-0.47948-0.05574-0.25089-0.06134-0.4516-0.18398-0.20629-0.12824-0.33452-0.33452-0.13381-0.20627-0.13938-0.50736-0.00556-0.14497 0.055754-0.28993 0.061329-0.14497 0.17841-0.25088-0.35682-0.35682-0.35124-0.88648 0-0.33452 0.16726-0.51293 0.16726-0.18398 0.4293-0.18398 0.1115 0 0.25646 0.05018 0.14496 0.04461 0.17284 0.12264l-0.061329 0.08919q-0.033451-0.10592-0.15611-0.13937-0.12266-0.03902-0.22301-0.03902-0.21186 0-0.36797 0.20071-0.15611 0.19514-0.15611 0.4516 0 0.23972 0.10036 0.43488 0.10036 0.19514 0.27877 0.35124 0.07248-0.04461 0.15611-0.0669 0.078054-0.02798 0.17841-0.02798 0.12266 0 0.26204 0.03345 0.13381 0.02799 0.24531 0.09479 0.11708 0.0669 0.18956 0.17842 0.078054 0.11152 0.078054 0.27877v0.02245q0.12823 0.02799 0.25646 0.05018 0.12823 0.02245 0.26204 0.03902-0.13381-0.05574-0.23416-0.15053-0.094779-0.09479-0.094779-0.20627 0-0.05574 0.027887-0.12264 0.027887-0.07247 0.083632-0.07247 0.016726 0 0.044603 0.01106 0.033451 0.0055 0.033451 0.04461 0 0.04461-0.061329 0.0669-0.055754 0.0166-0.055754 0.07806 0 0.03902 0.016726 0.07247 0.027887 0 0.055754 0.0055 0.027887 0 0.066905 0.0166 0.061329 0.03345 0.10593 0.09479 0.044603 0.05574 0.089205 0.11152 0.011161 0.0055 0.02229 0.01106 0.016726 0.0055 0.027887 0.01106-0.02229-0.04461-0.044603-0.09479-0.016726-0.05018-0.016726-0.10035 0-0.0669 0.094779-0.0669 0.078054 0 0.14496 0.05018 0.07248 0.04461 0.13938 0.11152-0.089205 0.05018-0.10593 0.15609 0.039029 0.0055 0.078054 0.01106 0.039029 0 0.083631 0.0055 0.27876-0.17285 0.59656-0.22303-0.094779-0.11708-0.10036-0.2955-0.00556-0.15053 0.061329-0.24532 0.066903-0.09479 0.23416-0.09479 0.083631 0 0.15611 0.04461 0.078053 0.03902 0.16168 0.04461 0.033451 0 0.044603-0.0166 0.016726-0.01659 0.02229-0.03901 0.011161-0.02799 0.016726-0.04461 0.011161-0.0166 0.033451-0.0166 0.044603 0 0.078054 0.02245 0.039029 0.02245 0.039029 0.06134-0.00556 0.07806-0.078054 0.11151-0.066903 0.03345-0.12823 0.03902-0.10593 0.0055-0.17283-0.05574-0.061329-0.06134-0.14496-0.06134-0.12266 0-0.16726 0.08919-0.039029 0.08363-0.039029 0.17282 0 0.09479 0.027887 0.16169 0.027887 0.06134 0.07248 0.10592 0.033451-0.0055 0.066905-0.0055 0.033451 0 0.061329 0 0.55196 0 0.91993 0.26761 0.36797 0.26761 0.56311 0.65231l0.02229 0.05018q0.20629 0.44045 0.19514 0.89762-0.011161 0.407-0.17283 0.77497-0.16168 0.36797-0.50178 0.59656l-0.027887-0.05574q0.30107-0.22303 0.4516-0.52408 0.15611-0.30666 0.16168-0.73594 0-0.23972-0.050177-0.49062-0.050178-0.25084-0.16169-0.47386-0.17841-0.21743-0.39585-0.34009-0.21186-0.12264-0.42372-0.20071-0.21186-0.083628-0.40142-0.14497-0.18956-0.06134-0.31779-0.15613-0.12266 0.0055-0.25089 0.05018-0.12266 0.03902-0.23974 0.10592 0.36797 0.05018 0.73037 0.17282 0.36797 0.11708 0.65789 0.3401 0.29549 0.21743 0.47948 0.56311 0.18956 0.3401 0.19514 0.84187 0.00556 0.26761-0.089205 0.53523-0.089205 0.26761-0.34567 0.45718v-0.02798zm-2.3361-2.074q0-0.24532 0.1115-0.44045 0.1115-0.19514 0.28992-0.33452-0.027887-0.0055-0.055754-0.0055-0.027887-0.0055-0.055754-0.0055-0.22301-0.01106-0.4293-0.03902-0.20071-0.02799-0.3847-0.0669-0.039029 0.08363-0.12266 0.1338-0.083632 0.04461-0.16726 0.07806-0.083632 0.02799-0.14496 0.04461-0.061329 0.01106-0.061329 0.02799-0.00556 0.03901 0.027887 0.07247 0.033451 0.03345 0.055754 0.0669-0.20071-0.0055-0.20071-0.12824 0-0.06134 0.061329-0.08919 0.061329-0.03345 0.14496-0.06134 0.078053-0.02798 0.15611-0.06134 0.083632-0.03902 0.12823-0.11152-0.64116-0.16169-0.99241-0.47948-0.1115 0.09479-0.16726 0.23416-0.061329 0.1338-0.061329 0.27321 0 0.26761 0.13381 0.4516 0.12823 0.18398 0.32894 0.2955 0.20071 0.10592 0.43487 0.15609 0.23416 0.04461 0.44602 0.04461 0.13381 0 0.26204-0.01106 0.13381-0.01106 0.26204-0.02798zm-1.2377-1.5444q-0.17283 0-0.31222 0.08363 0.17841 0.14496 0.41815 0.25648 0.23974 0.10592 0.5185 0.17842v-0.02799q0-0.08363-0.061329-0.16726-0.061329-0.08919-0.15611-0.16169-0.089205-0.07247-0.19514-0.11708-0.1115-0.04461-0.21186-0.04461zm2.3138 2.0684q-0.078054 0-0.14496-0.04461-0.061329-0.05018-0.10593-0.11708-0.044603-0.07247-0.07248-0.15053-0.02229-0.08363-0.02229-0.1561v-0.02245q-0.13938 0.0055-0.27877 0.02245-0.13381 0.01106-0.26204 0.03345 0.011161 0.16726 0.078054 0.34567 0.066902 0.17282 0.18398 0.31779 0.12266 0.14497 0.29549 0.23972 0.17283 0.08919 0.39027 0.08919 0.11708 0 0.26204-0.04461-0.02229-0.02798-0.039026-0.05574-0.016726-0.02799-0.016726-0.06134 0-0.08363 0.027887-0.14497 0.033451-0.0669 0.055754-0.1338 0.17841 0.23416 0.24531 0.18955 0.011161-0.03902 0.016726-0.07806 0.00556-0.03902 0.00556-0.07806 0-0.05018-0.061329-0.06134-0.055754-0.01106-0.055754-0.07806 0-0.02799 0.016726-0.04461 0.02229-0.02245 0.050177-0.02245 0.050177 0 0.078054 0.06134 0.027887 0.05574 0.027887 0.11151 0 0.11151-0.033451 0.21743 0.10593-0.09479 0.17283-0.23416 0.066902-0.14496 0.066902-0.33452v-0.0055q-0.25646-0.14496-0.55753-0.19514-0.30107-0.050179-0.57426-0.055739-0.011161 0.05574-0.011161 0.08363 0 0.08919 0.078054 0.17842 0.083632 0.08363 0.14496 0.08363 0.078053 0 0.17284 0.04461 0.10036 0.03902 0.10036 0.11152 0 0.03902-0.02229 0.08919-0.02229 0.04461-0.089205 0.04461 0.02229-0.02798 0.02229-0.05574 0.00556-0.03345 0.00556-0.06134 0-0.03345-0.055754-0.02799-0.055754 0-0.094779 0zm0.23416-0.9032q-0.12823 0.0055-0.25646 0.10035-0.12823 0.09479-0.19514 0.21743 0.26204 0.01106 0.55196 0.07247 0.28992 0.05574 0.5408 0.18398-0.027887-0.21744-0.18956-0.39585-0.15611-0.17842-0.4516-0.17842zm1.2321-0.10592q-0.17841-0.20627-0.45718-0.3401-0.27319-0.13937-0.65231-0.16169 0.10036 0.03902 0.22301 0.07247t0.26204 0.08363q0.14496 0.05018 0.30107 0.1338 0.16168 0.07806 0.32337 0.21187zm0.66904 2.9382q0.23416-0.07247 0.46275-0.18398 0.23416-0.11152 0.47948-0.11152 0.15611 0 0.25646 0.0669 0.10593 0.06134 0.1115 0.19514 0 0.03345-0.01673 0.07247t-0.06133 0.05018q0.03345-0.06134 0.0056-0.15053-0.02229-0.09479-0.07805-0.08363-0.03903 0.0055-0.03903 0.04461 0.0056 0.03345-0.02229 0.03902-0.07805 0.0166-0.11708 0-0.03345-0.02245-0.05018-0.05018-0.01116-0.03345-0.02229-0.05574-0.0056-0.02245-0.033451-0.01106-0.044603 0.02245-0.061328 0.06134-0.016726 0.03902-0.027887 0.07806-0.00556 0.03345-0.02229 0.0669-0.011161 0.02799-0.044603 0.02799-0.044603 0-0.066902-0.02245-0.016726-0.02799-0.033451-0.05574-0.016726-0.03345-0.039026-0.05574-0.02229-0.02799-0.061329-0.02245-0.094779 0.0055-0.18956 0.05574-0.089206 0.05018-0.18398 0.07247z"/>
                <path d="m13.684 82.937q0.13381 0.01106 0.25089 0.10035 0.12266 0.08363 0.21744 0.21743 0.09478 0.12824 0.15053 0.27877 0.05575 0.15053 0.05575 0.28993 0 0.223-0.0669 0.39027-0.06133 0.16169-0.16168 0.28434-0.10036 0.12264-0.22859 0.21187-0.12266 0.08363-0.24531 0.1561l-0.0446-0.08363q0.13938-0.08363 0.27877-0.22859 0.14496-0.15053 0.14496-0.32338 0-0.16726-0.07248-0.2955-0.07248-0.1338-0.16726-0.22859-0.09478-0.10035-0.18398-0.1561-0.08921-0.06134-0.12266-0.08919v-0.033449q-0.20629 0.16726-0.30107 0.41815-0.0892 0.24532-0.0892 0.57983 0 0.17285 0.07805 0.36239 0.08363 0.18955 0.21186 0.35125 0.13381 0.1561 0.30107 0.26205 0.16726 0.10592 0.33452 0.10592 0.07248 0 0.10593-0.05018 0.03903-0.05018 0.13938-0.0669 0.01673 0.02245 0.01673 0.05574 0 0.03345 0.0056 0.06134-0.12823 0.05574-0.16726 0.20071-0.03903 0.14496-0.06133 0.32338-0.21744 0-0.45718-0.08919-0.23416-0.08919-0.43488-0.26204-0.20071-0.17842-0.32894-0.43487-0.12823-0.25648-0.12266-0.58541 0.0056-0.17842 0.07248-0.36797 0.06691-0.18955 0.17284-0.3624 0.1115-0.17842 0.24531-0.33452 0.13938-0.16169 0.28434-0.27877 0.03345-0.223 0.18956-0.37912zm0.05018 1.0259q0.03345 0.0669-0.05575 0.13937-0.08921 0.01106-0.14496 0.07247-0.05575 0.05574-0.0892 0.13937-0.02789 0.07806-0.03903 0.17282-0.01116 0.08919-0.01116 0.16726 0 0.19514 0.11708 0.3847 0.11708 0.18398 0.26762 0.28434 0.01116 0.05018-0.03903 0.05018-0.17841-0.1561-0.30664-0.32335-0.12823-0.17285-0.12823-0.45718 0-0.09479 0.02229-0.20627 0.02229-0.11708 0.07248-0.21187 0.05018-0.09479 0.13381-0.15609 0.08363-0.06134 0.20071-0.05574z"/>
                <path d="m14.567 83.098q-0.08363-0.06134 0.0056-0.15053 0.05018 0 0.09478 0.0055 0.05018 0 0.10036 0.0055v-0.4293q0-0.1561-0.06133-0.3624-0.05575-0.20627-0.23974-0.32894l0.02229-0.04461q0.12266 0.01659 0.28434 0.14496 0.16168 0.12264 0.25646 0.37912 0.03903-0.30666 0.17841-0.53523 0.14496-0.23416 0.36797-0.35682l-0.02229 0.10592q-0.15053 0.16726-0.22301 0.39027-0.06691 0.21743-0.06691 0.45718v0.57426q0.09478-0.02245 0.16726-0.0669 0.07248-0.05018 0.12823-0.14497 0.03345 0.02245 0.0446 0.05574-0.05018 0.13937-0.10036 0.26204-0.0446 0.12264-0.0446 0.2955 0 0.09479 0.05575 0.18958 0.06133 0.08919 0.06133 0.17842 0 0.03902-0.01672 0.10035-0.01116 0.05574-0.0446 0.05574-0.05018-0.08363-0.07248-0.20627-0.02229-0.12824-0.03903-0.24532-0.01116-0.12264-0.02229-0.21743-0.01116-0.09479-0.03345-0.11151h-0.08363v2.3138l0.0446-0.01106q-0.0056-0.2955-0.0056-0.55753 0-0.26761 0.01673-0.46275 0.02229-0.19514 0.07805-0.31222 0.05575-0.11708 0.15611-0.11708 0.02229 0.0055 0.03345 0.03345 0.01116 0.02245-0.0056 0.09479-0.02789 0.01659-0.0669 0.03901-0.03345 0.0166-0.06133 0.06134-0.05575 0.10035-0.07805 0.3847-0.02229 0.28434-0.02229 0.83072l0.05018-0.01106q0.0669 0.03902 0.01116 0.12824-0.16726 0.09479-0.26762 0.22859-0.10036 0.13381-0.21186 0.28993-0.16726 0.0055-0.16726-0.10035v-2.8323z"/>
                <path d="m16.689 82.937q0.13381 0.01106 0.25089 0.10035 0.12266 0.08363 0.21744 0.21743 0.09478 0.12824 0.15053 0.27877 0.05576 0.15053 0.05576 0.28993 0 0.223-0.0669 0.39027-0.06133 0.16169-0.16168 0.28434-0.10036 0.12264-0.22859 0.21187-0.12266 0.08363-0.24531 0.1561l-0.0446-0.08363q0.13938-0.08363 0.27877-0.22859 0.14496-0.15053 0.14496-0.32338 0-0.16726-0.07248-0.2955-0.07248-0.1338-0.16726-0.22859-0.09478-0.10035-0.18398-0.1561-0.08921-0.06134-0.12266-0.08919v-0.033449q-0.20629 0.16726-0.30107 0.41815-0.08921 0.24532-0.08921 0.57983 0 0.17285 0.07805 0.36239 0.08363 0.18955 0.21186 0.35125 0.13381 0.1561 0.30107 0.26205 0.16726 0.10592 0.33452 0.10592 0.07248 0 0.10593-0.05018 0.03903-0.05018 0.13938-0.0669 0.01672 0.02245 0.01672 0.05574 0 0.03345 0.0056 0.06134-0.12823 0.05574-0.16726 0.20071-0.03903 0.14496-0.06133 0.32338-0.21744 0-0.45718-0.08919-0.23416-0.08919-0.43487-0.26204-0.20071-0.17842-0.32894-0.43487-0.12823-0.25648-0.12266-0.58541 0.0056-0.17842 0.07248-0.36797 0.0669-0.18955 0.17283-0.3624 0.1115-0.17842 0.24531-0.33452 0.13938-0.16169 0.28434-0.27877 0.03345-0.223 0.18956-0.37912zm0.05018 1.0259q0.03345 0.0669-0.05575 0.13937-0.08921 0.01106-0.14496 0.07247-0.05575 0.05574-0.08921 0.13937-0.02789 0.07806-0.03903 0.17282-0.01116 0.08919-0.01116 0.16726 0 0.19514 0.11708 0.3847 0.11708 0.18398 0.26762 0.28434 0.01116 0.05018-0.03903 0.05018-0.17841-0.1561-0.30664-0.32335-0.12823-0.17285-0.12823-0.45718 0-0.09479 0.02229-0.20627 0.02229-0.11708 0.07248-0.21187 0.05018-0.09479 0.13381-0.15609 0.08363-0.06134 0.20071-0.05574z"/>
                <path d="m18.146 85.423 0.0446-0.01106q-0.0056-0.2955-0.0056-0.55753 0-0.26761 0.01673-0.46275 0.02229-0.19514 0.07805-0.31222 0.05576-0.11708 0.15611-0.11708 0.02229 0.0055 0.03345 0.03345 0.01116 0.02245-0.0056 0.09479-0.02789 0.01659-0.0669 0.03902-0.03345 0.01659-0.06133 0.06134-0.05575 0.10035-0.07805 0.3847-0.02229 0.28434-0.02229 0.83072l0.05018-0.01106q0.0669 0.03902 0.01116 0.12824-0.16726 0.09479-0.26762 0.22859-0.10036 0.13381-0.21186 0.28993-0.16726 0.0055-0.16726-0.10035v-2.3472q-0.03345-0.0166-0.07248 0.0055-0.03345 0.02245-0.0669 0.02245t-0.03903-0.04461q0-0.04461 0.02789-0.08363 0.16726-0.09479 0.26762-0.22859 0.10593-0.1338 0.21186-0.28993 0.16726-0.0055 0.16726 0.10035v0.4962q0.13938-0.07806 0.26204-0.24532 0.12266-0.16726 0.25089-0.35124 0.07805 0 0.15611 0.04461 0.08363 0.03902 0.14496 0.10592 0.06133 0.0669 0.10036 0.14497 0.03903 0.07806 0.03903 0.15053 0 0.15609-0.07248 0.2955-0.07248 0.13937-0.16168 0.25088-0.08921 0.10592-0.16168 0.18398-0.07248 0.07806-0.07248 0.11152 0 0.07247 0.08363 0.12824 0.08921 0.05574 0.08921 0.12824 0 0.07806-0.03903 0.12824-0.03345 0.05018-0.07805 0.05018 0-0.05574-0.02789-0.08919t-0.06133-0.06134q-0.03345-0.03345-0.06133-0.07806-0.02229-0.04461-0.02229-0.11708 0-0.0669 0.03345-0.1338 0.03903-0.0669 0.08363-0.12824 0.0446-0.0669 0.07805-0.12824 0.03903-0.0669 0.03903-0.13937 0-0.14497-0.08921-0.23416-0.08921-0.08919-0.19514-0.08919-0.12266 0-0.17841 0.09479-0.05575 0.09479-0.13938 0.17842z"/>
                <path d="m19.214 81.381q0.05575 0.23972 0.05018 0.47948-0.0056 0.23416-0.05018 0.4739 0.14496-0.06134 0.22859-0.01106 0.12823-0.23416 0.18956-0.48505 0.0669-0.25648 0.03903-0.52408-0.25646-0.03345-0.45718 0.0669z"/>
                <path d="m21.313 85.663q-0.08921 0.0669-0.15053 0.15613-0.06133 0.08363-0.08363 0.19514-0.07805 0.02245-0.11708-0.02799-0.11708-0.1338-0.28992-0.18398-0.17284-0.05018-0.3624-0.05018-0.12266 0-0.23974 0.05574-0.1115 0.05574-0.18956 0.17842-0.03345 0-0.06133-0.01106-0.02229-0.01106-0.02789-0.05018 0.07805-0.10592 0.16726-0.21187 0.08921-0.11152 0.19514-0.20071 0.10593-0.08919 0.22301-0.14497 0.11708-0.05574 0.25646-0.05574 0.15054 0 0.34567 0.08363 0.20071 0.07806 0.28992 0.17282 0.07805-0.08363 0.10593-0.20071 0.02789-0.11708 0.02789-0.23416 0-0.16169-0.03903-0.32894-0.03345-0.16726-0.16168-0.28993-0.01673-0.0166-0.03903-0.03345-0.01673-0.0166-0.03903-0.03345-0.08363 0.15609-0.28434 0.26204-0.19514 0.10592-0.37354 0.10592-0.05018 0-0.07248-0.0055-0.0056 0.0055-0.01116 0.0166 0 0.01106-0.0056 0.02245-0.02229-0.0055-0.05018-0.01659-0.02229-0.01106-0.03345-0.04461 0-0.0055 0-0.0055 0.0056 0 0.0056-0.0055-0.05576-0.02798-0.11151-0.06134-0.05018-0.03345-0.10036-0.07247-0.10593-0.08363-0.17284-0.18398-0.06133-0.10035-0.06133-0.20627 0-0.37355 0.17841-0.60771 0.18398-0.23416 0.46833-0.37354 0.11708-0.05018 0.20629-0.12824 0.09478-0.08363 0.15611-0.17842 0.01116-0.02799 0.06133-0.0166 0.18956 0.16726 0.34567 0.16726 0.08921 0 0.16726-0.04461 0.07805-0.05018 0.16726-0.1338 0.02789 0.0055 0.05018 0.02799 0.02229 0.02245 0.01116 0.07247-0.28992 0.4516-0.68576 0.4516-0.10036 0-0.21186-0.02798-0.10593-0.02798-0.21744-0.08919-0.1115 0.10035-0.17283 0.21187-0.05575 0.10592-0.05575 0.23976 0 0.12264 0.06133 0.2955 0.0669 0.17282 0.18956 0.27877 0.20071-0.16726 0.45718-0.22859-0.0056-0.0166-0.0056-0.02799 0-0.01106-0.0056-0.02245 0.02789-0.02798 0.0446-0.02245 0.01673 0 0.0446 0.02245 0.0056 0.0055 0.01116 0.0166 0.0056 0.01106 0.01116 0.01659 0.02229-0.0055 0.05018-0.0055t0.05575 0q0.1115 0 0.25089 0.03345 0.13938 0.03345 0.23416 0.11152 0.1115 0.08919 0.16168 0.22859 0.05018 0.1338 0.0446 0.26204-0.0056 0.15053-0.0669 0.27321-0.05575 0.12264-0.14496 0.22859-0.08921 0.10592-0.19514 0.20071-0.10593 0.08919-0.20629 0.17842zm-0.50178-1.1652q0.07248 0 0.11708-0.03345 0.0446-0.03902 0.07248-0.08919-0.05018-0.02245-0.13381-0.02245-0.12266 0-0.23416 0.09479 0.08363 0.05018 0.17841 0.05018zm0.08921-0.83629q-0.02789-0.0166-0.07248-0.02245-0.03903-0.0055-0.0669-0.0055-0.05576 0-0.11151 0.03902-0.05575 0.03901-0.09478 0.11152-0.03345 0.07247-0.03903 0.17842-0.0056 0.10592 0.03903 0.23972-0.0056 0.0166-0.02229 0.0166-0.01673 0-0.02789-0.0166-0.0669-0.15053-0.05575-0.27321 0.01116-0.12264 0.06133-0.21187 0.05018-0.08919 0.11708-0.1338 0.07248-0.05018 0.12823-0.05018 0.05575 0 0.10593 0.01106 0.05575 0.01106 0.08921 0.04461 0 0.05018-0.05018 0.07247zm0.41257 1.7674q-0.03345 0.03345-0.05018-0.01106 0.01116-0.22859-0.08363-0.35682-0.08921-0.12824-0.23416-0.12824-0.03903 0-0.08363 0.01106-0.03903 0.01106-0.05575 0.05018-0.08363 0.01106-0.10593-0.04461 0.03345-0.1338 0.20071-0.1338 0.08921 0 0.16726 0.05574 0.08363 0.05018 0.13938 0.13937 0.06133 0.08363 0.08921 0.19514 0.03345 0.10592 0.01673 0.223z"/>
                <path d="m24.317 85.931v-3.4567q0-0.1561-0.06134-0.3624-0.05574-0.20627-0.23976-0.32894l0.02245-0.04461q0.12264 0.01659 0.28993 0.16726 0.16726 0.14496 0.26204 0.40142 0.02245-0.15053 0.12264-0.31222 0.10592-0.16726 0.25648-0.30106 0.1561-0.13937 0.3401-0.22859 0.18398-0.08919 0.3624-0.08919 0.17282 0 0.33452 0.09479 0.16169 0.08919 0.16169 0.25648 0 0.10592-0.07806 0.19514-0.07806 0.08363-0.07247 0.19514 0 0.02245 0.02245 0.05574 0.02245 0.02798 0.06134 0.02245 0.10592-0.0055 0.21187-0.08919 0.02245 0.03345 0 0.08919-0.0669 0.02798-0.15053 0.05574-0.08363 0.02799-0.16726 0.02799-0.12824 0-0.18398-0.07806-0.05574-0.08363-0.05574-0.16726 0-0.1338 0.07247-0.20627 0.07247-0.07806 0.07247-0.17285 0-0.10592-0.08363-0.14496-0.08363-0.04461-0.23416-0.04461-0.24532 0-0.39585 0.223-0.15053 0.21743-0.23416 0.50735-0.08363 0.28993-0.11151 0.56868-0.02798 0.27877-0.02798 0.40142v0.39027q0.10035-0.04461 0.17842-0.12824 0.08363-0.08919 0.13937-0.16726 0.03345-0.18958 0.17842-0.34567 0.23416 0.06134 0.40142 0.20071 0.16726 0.1338 0.27877 0.31222 0.11151 0.17282 0.16169 0.37912 0.05018 0.20071 0.05018 0.39585 0 0.23976-0.11708 0.48506-0.11151 0.24532-0.28433 0.49063-0.17282 0.24532-0.37355 0.48505-0.20071 0.23972-0.37354 0.45718-0.16726 0.223-0.28434 0.42372-0.11708 0.20071-0.11708 0.3624 0 0.18955 0.11152 0.36797 0.11708 0.18398 0.3847 0.18958 0.16726 0 0.30662-0.08919t0.26761-0.21187q0.13381-0.11708 0.26761-0.23975 0.1338-0.12264 0.2955-0.18955 0.02245 0.02798 0.02799 0.05018 0.0055 0.02798-0.02799 0.0669-0.07247 0.06134-0.18955 0.21743-0.11708 0.1561-0.27877 0.27877-0.12824 0.10592-0.28434 0.15609-0.15609 0.05018-0.2955 0.05018-0.27317 0-0.46275-0.20627-0.18398-0.20071-0.17842-0.52408 0-0.21743 0.17842-0.50735 0.18398-0.28993 0.39585-0.61328 0.21187-0.32894 0.39027-0.67461 0.17842-0.34567 0.17285-0.68019 0-0.12824-0.04461-0.26204-0.03902-0.1338-0.11708-0.25088-0.07806-0.11708-0.18954-0.20627-0.11152-0.08919-0.25088-0.1338-0.05018 0-0.10035 0.03345-0.04461 0.03345-0.08919 0.07806-0.04461 0.03902-0.07806 0.07806-0.03345 0.03902-0.05018 0.05018v1.6782q0.03345 0.0166 0.0669-0.0055 0.03902-0.02245 0.07247-0.02245t0.03345 0.04461-0.02245 0.08363q-0.16726 0.09479-0.26761 0.22859-0.10035 0.1338-0.21187 0.28993-0.16726 0.0055-0.16726-0.10035zm0.56311-2.6873q0.0055-0.43488 0.05574-0.73037 0.05018-0.2955 0.13937-0.4739 0.08919-0.18398 0.20071-0.26204 0.11708-0.07806 0.25088-0.07806 0.05574 0.05018-0.0055 0.11151-0.15613 0-0.26761 0.12264-0.10592 0.11708-0.17842 0.31779-0.0669 0.20071-0.10035 0.46275-0.03345 0.25648-0.04461 0.54081-0.02245 0.0166-0.05018-0.01106zm0.54638 0.78612q-0.17842 0.03902-0.28433 0.1561-0.10595 0.11152-0.16169 0.27877-0.05574 0.16169-0.0669 0.36797-0.01106 0.20627 0 0.42372-0.01106-0.0055-0.01659-0.02245-0.0055-0.0166-0.01106-0.02798-0.01106-0.25648 0.0055-0.48505 0.0166-0.23416 0.07247-0.407 0.05574-0.17282 0.1561-0.27317 0.10035-0.10035 0.25648-0.10035 0.06134 0.03345 0.05018 0.08919zm0.12824 2.665q-0.03345-0.07247-0.10035-0.11708-0.0669-0.04461-0.13937-0.04461-0.12264 0-0.22859 0.06134-0.10035 0.0669-0.14497 0.17282-0.02245 0-0.02798-0.0166 0.03901-0.12824 0.14496-0.23416 0.10592-0.10035 0.26204-0.10035 0.08919 0 0.19514 0.05574 0.10592 0.06134 0.12824 0.13937-0.02799 0.0669-0.08919 0.08363z"/>
                <path d="m27.376 82.953q0.18398-0.01106 0.36797 0.10035 0.18955 0.11152 0.34009 0.28993 0.15053 0.17842 0.24532 0.39585 0.09479 0.21743 0.09479 0.41815 0 0.24532-0.0669 0.44603-0.06134 0.20071-0.16169 0.36797-0.09479 0.16726-0.21187 0.31222-0.11708 0.13937-0.22859 0.26761-0.11708 0.12824-0.16726 0.26204-0.05018 0.12824-0.10035 0.223-0.20071-0.02799-0.39027-0.13381-0.18955-0.10592-0.33452-0.27317-0.14496-0.16726-0.23416-0.39027-0.08919-0.22859-0.08919-0.4962 0-0.20627 0.07247-0.42372 0.07247-0.223 0.18398-0.42372 0.11708-0.20627 0.26761-0.37912 0.15053-0.17285 0.30662-0.28993 0.01106-0.07247 0.03902-0.1394 0.02799-0.07247 0.0669-0.1338zm0.66904 1.7451q0-0.18398-0.05018-0.37354-0.04461-0.18958-0.13937-0.3624-0.09479-0.17285-0.24532-0.30666-0.14496-0.1338-0.3401-0.20071-0.11708 0.02245-0.20627 0.11151-0.08363 0.08919-0.1394 0.21187-0.05018 0.12264-0.07806 0.26761-0.02799 0.14497-0.02799 0.27877 0 0.18398 0.04461 0.36797 0.05018 0.18398 0.15053 0.34567 0.10035 0.16169 0.26204 0.28993 0.16169 0.12824 0.39585 0.20071 0.06134-0.08919 0.12824-0.16169 0.0669-0.07806 0.11708-0.16169 0.05574-0.08919 0.08919-0.20627 0.03902-0.12264 0.03902-0.30106zm-0.57426-0.63558q-0.18955 0.03345-0.28993 0.18958-0.10035 0.15053-0.10035 0.31222 0 0.26761 0.11151 0.44603 0.11152 0.17842 0.35682 0.39585-0.02245 0.05018-0.08919 0-0.17842-0.17842-0.30662-0.35682-0.12824-0.17842-0.12824-0.50178 0-0.08919 0.02245-0.18955 0.02245-0.10035 0.07247-0.18398 0.05018-0.08919 0.12824-0.15053t0.18955-0.07806q0.08919 0.04461 0.03345 0.11708z"/>
                <path d="m29.21 85.412 0.04461-0.01106q-0.0055-0.2955 0.01106-0.55753 0.02245-0.26204 0.07806-0.45718 0.05574-0.19514 0.14497-0.30666 0.08919-0.11708 0.223-0.11708 0.02245 0.0055 0.04461 0.02799 0.02245 0.01659 0.0055 0.08919-0.15053 0.05574-0.23416 0.12824-0.07806 0.07247-0.12264 0.21187-0.03902 0.1338-0.06134 0.36797-0.01659 0.22859-0.04461 0.60771l0.05018-0.01106q0.0669 0.03902 0.01106 0.12824-0.16726 0.09479-0.26761 0.22859-0.10035 0.1338-0.21187 0.28993-0.16726 0.0055-0.16726-0.10035v-2.3475q-0.03345-0.0166-0.07247 0.0055-0.03345 0.02245-0.0669 0.02245t-0.03902-0.04461q0-0.04461 0.02799-0.08363 0.16726-0.09479 0.26761-0.2286 0.10592-0.1338 0.21187-0.28993 0.16726-0.0055 0.16726 0.10035v0.37355q0.03902-0.06134 0.18954-0.13937 0.1561-0.07806 0.33452-0.11708 0.03901-0.09479 0.12824-0.16169 0.08919-0.0669 0.16169-0.07806 0.0669 0 0.11708 0.05018 0.05574 0.05018 0.09479 0.12264 0.03901 0.0669 0.06134 0.14497 0.02245 0.07806 0.03902 0.1338l0.01106-0.01106q0.1394-0.20627 0.27317-0.32338 0.1338-0.11708 0.37912-0.11708 0.14497 0 0.25088 0.06134 0.11151 0.05574 0.26204 0.05574 0.03345 0 0.07806-0.03902 0.05018-0.03902 0.08363-0.06134 0.0055-0.01106 0.01659-0.02245 0.01106-0.0166 0.02245-0.02798 0.02798 0 0.05574 0.01106 0.02799 0.01106 0.03345 0.04461-0.28993 0.28434-0.44045 0.58541-0.14497 0.2955-0.14497 0.74152 0 0.51293 0.11708 0.78612 0.11708 0.26761 0.36797 0.40142 0.04461-0.02245 0.10035-0.06134 0.05574-0.03902 0.09479-0.03902 0.0055 0.0055 0.0166 0.03902 0.0166 0.03345 0.0055 0.06134-0.08919 0.05574-0.13381 0.12824-0.03902 0.0669-0.07247 0.14497-0.02798 0.07247-0.05574 0.14496-0.02799 0.07247-0.09479 0.13937-0.19514-0.0166-0.33452-0.15053-0.1394-0.13937-0.22859-0.32894-0.08919-0.18955-0.12824-0.40142-0.03902-0.21743-0.03345-0.39027 0-0.37355 0.15053-0.70806 0.15053-0.3401 0.37355-0.65789-0.10592 0-0.17285-0.01106-0.06134-0.01106-0.12264-0.02798-0.05574-0.0166-0.12264-0.02799-0.0669-0.01659-0.16726-0.01659-0.15053 0-0.26204 0.08919-0.10592 0.08919-0.16169 0.19514 0 0.03345 0 0.0669 0.0055 0.03345 0.0055 0.07247v1.6503l0.04461-0.01106q-0.0055-0.2955 0.01106-0.55753 0.02245-0.26204 0.07806-0.45718 0.05574-0.19514 0.14497-0.30662 0.08919-0.11708 0.223-0.11708 0.02245 0.0055 0.04461 0.02798 0.02245 0.0166 0.0055 0.08919-0.15053 0.05574-0.23416 0.12824-0.07806 0.07247-0.12264 0.21187-0.03901 0.1338-0.06134 0.36797-0.0166 0.22859-0.04461 0.60771l0.05018-0.01106q0.0669 0.03902 0.01106 0.12824-0.16726 0.09479-0.26761 0.23972-0.10035 0.14497-0.20627 0.30106-0.17285 0.0055-0.17285-0.12264v-2.2413q0-0.11708-0.05574-0.16169-0.05574-0.04461-0.12264-0.12264-0.01106-0.0055-0.04461-0.0055-0.03345-0.0055-0.05018 0-0.12264 0.02245-0.18955 0.05018-0.0669 0.02799-0.10035 0.07247-0.03345 0.04461-0.05018 0.10592-0.01659 0.06134-0.03902 0.15053zm2.1242-0.53523q0-0.10592 0.04461-0.17842 0.04461-0.07247 0.11708-0.12824 0.08363 0 0.07247 0.06134-0.15053 0.10592-0.15053 0.24532 0 0.25088 0.17842 0.39585 0.0055 0.02245-0.0055 0.03902-0.01106 0.01106-0.02245 0.02245-0.07247-0.10035-0.1561-0.21743-0.07806-0.12264-0.07806-0.23976z"/>
                <path d="m33.012 82.937q0.1338 0.01106 0.25088 0.10035 0.12264 0.08363 0.21743 0.21743 0.09479 0.12824 0.15053 0.27877t0.05574 0.28993q0 0.223-0.0669 0.39027-0.06134 0.16169-0.16169 0.28434-0.10035 0.12264-0.22859 0.21187-0.12264 0.08363-0.24532 0.1561l-0.04461-0.08363q0.13937-0.08363 0.27877-0.22859 0.14497-0.15053 0.14497-0.32338 0-0.16726-0.07247-0.2955-0.07247-0.1338-0.16726-0.22859-0.09479-0.10035-0.18398-0.1561-0.08919-0.06134-0.12264-0.08919v-0.033449q-0.20627 0.16726-0.30106 0.41815-0.08919 0.24532-0.08919 0.57983 0 0.17285 0.07806 0.36239 0.08363 0.18955 0.21187 0.35125 0.1338 0.1561 0.30106 0.26205 0.16726 0.10592 0.33452 0.10592 0.07247 0 0.10592-0.05018 0.03902-0.05018 0.1394-0.0669 0.01659 0.02245 0.01659 0.05574 0 0.03345 0.0055 0.06134-0.12824 0.05574-0.16726 0.20071-0.03902 0.14496-0.06134 0.32338-0.21743 0-0.45718-0.08919-0.23416-0.08919-0.43487-0.26204-0.20071-0.17842-0.32894-0.43487-0.12824-0.25648-0.12264-0.58541 0.0055-0.17842 0.07247-0.36797 0.0669-0.18955 0.17282-0.3624 0.11152-0.17842 0.24532-0.33452 0.1394-0.16169 0.28434-0.27877 0.03345-0.223 0.18958-0.37912zm0.05018 1.0259q0.03345 0.0669-0.05574 0.13937-0.08919 0.01106-0.14496 0.07247-0.05574 0.05574-0.08919 0.13937-0.02799 0.07806-0.03902 0.17282-0.01106 0.08919-0.01106 0.16726 0 0.19514 0.11708 0.3847 0.11708 0.18398 0.26761 0.28434 0.01106 0.05018-0.03902 0.05018-0.17842-0.1561-0.30666-0.32335-0.12824-0.17285-0.12824-0.45718 0-0.09479 0.02245-0.20627 0.02245-0.11708 0.07247-0.21187 0.05018-0.09479 0.1338-0.15609 0.08363-0.06134 0.20071-0.05574z"/>
                <path d="m34.503 86.923 0.04461-0.01106q-0.0055-0.2955 0.05018-0.4516 0.06134-0.1561 0.1394-0.2286 0.07807-0.0669 0.14497-0.07806 0.07247-0.0055 0.08363-0.0055 0.02245-0.0055 0.05574 0.02245 0.03345 0.03345 0.0166 0.10592-0.01106 0.02798-0.07806 0.01659-0.06134-0.0055-0.13937 0.03345-0.07247 0.03901-0.14497 0.16169-0.0669 0.12264-0.08363 0.41815l0.05018-0.01106q0.0669 0.03902 0.01106 0.12824-0.16726 0.09479-0.26761 0.2286-0.10035 0.1338-0.21187 0.28993-0.16726 0.0055-0.16726-0.10035v-1.8067q-0.08363 0.05574-0.12264 0.16169-0.02245 0-0.05018-0.0055-0.02799-0.01106-0.03902-0.05018 0.10035-0.19514 0.21187-0.2955v-1.9124q-0.03345-0.0166-0.07247 0.0055-0.03345 0.02245-0.0669 0.02245t-0.03902-0.03902q0-0.04461 0.02798-0.08919 0.16726-0.09479 0.26761-0.22859 0.10592-0.1338 0.21187-0.28993 0.16726-0.0055 0.16726 0.10035v0.407q0.11708-0.18398 0.23416-0.32894 0.12264-0.15053 0.31779-0.15613 0.16726-0.0055 0.32338 0.06134 0.16169 0.06134 0.32894 0.05574 0.06134 0 0.11708-0.03901 0.05574-0.03902 0.10035-0.07806 0.08919 0.0166 0.08919 0.08919-0.10035 0.15053-0.24532 0.26761-0.13937 0.11152-0.30666 0.11152-0.1338 0-0.26761-0.05574-0.1338-0.06134-0.27321-0.06134-0.1338 0-0.22859 0.09479-0.08919 0.09479-0.18955 0.30662v1.7283q0.09479 0.06134 0.18398 0.15053 0.08919 0.08919 0.17842 0.17282 0.08919 0.08363 0.18398 0.14497 0.09479 0.05574 0.20627 0.05574 0.16726 0 0.31222-0.13937 0.15053-0.14497 0.1561-0.35682 0-0.14497-0.07247-0.27877-0.07247-0.1338-0.16169-0.26204-0.08363-0.12824-0.16169-0.26205-0.07247-0.1338-0.07247-0.27877 0-0.3624 0.13937-0.58541 0.13937-0.22859 0.26761-0.34567 0.0669-0.06134 0.07806-0.04461 0.01659 0.01106-0.0166 0.07247-0.05018 0.08363-0.07247 0.17285-0.01659 0.08919-0.01659 0.17282 0 0.17282 0.07806 0.32894 0.07806 0.15053 0.16726 0.30666 0.09479 0.1561 0.17285 0.31779 0.07806 0.16169 0.07806 0.34567 0 0.15609-0.05018 0.32338-0.05018 0.16169-0.15609 0.2955-0.10592 0.1338-0.26761 0.223-0.1561 0.08363-0.37355 0.08363-0.10592 0-0.20627-0.04461-0.10035-0.04461-0.19514-0.10592-0.09479-0.06134-0.18955-0.12824-0.08919-0.0669-0.18955-0.11151zm0.59098-2.849q-0.17282 0.03902-0.31222 0.31222-0.1394 0.27317-0.1394 0.88647h-0.05018q0-0.66346 0.11152-0.95895 0.11708-0.30106 0.31779-0.35682 0.12824 0.05574 0.07247 0.11708z"/>
                <path d="m37.767 84.291q0 0.51293 0.11708 0.78612 0.11708 0.26761 0.36797 0.40142 0.04461-0.02245 0.10035-0.06134 0.05574-0.03902 0.09479-0.03902 0.0055 0.0055 0.01659 0.03902 0.0166 0.03345 0.0055 0.06134-0.08919 0.05574-0.1338 0.12824-0.03901 0.0669-0.07247 0.14497-0.02798 0.07247-0.05574 0.14497-0.02799 0.07247-0.09479 0.13937-0.20071 0-0.3624-0.16726-0.15613-0.16726-0.24532-0.42372-0.08363 0.03345-0.1394 0.10035-0.05574 0.0669-0.09479 0.15053-0.03902 0.07806-0.07247 0.16726-0.03345 0.08919-0.08363 0.16726-0.14497 0-0.30106-0.11152-0.15613-0.11708-0.28434-0.30106-0.12264-0.18955-0.20627-0.42372-0.07806-0.23416-0.07806-0.4739 0-0.16169 0.04461-0.35682 0.04461-0.20071 0.12264-0.407 0.07806-0.20627 0.18955-0.39585 0.11708-0.18958 0.25648-0.32894 0.09479-0.09479 0.16169-0.15609 0.07247-0.0669 0.1394-0.10035 0.07247-0.03902 0.15053-0.05018 0.08363-0.01659 0.20627-0.01659 0.14497 0 0.27877 0.06134 0.13937 0.05574 0.28993 0.05574 0.03345 0 0.0669-0.02245 0.03901-0.02245 0.07247-0.04461 0.0055-0.01106 0.0166-0.02245 0.01106-0.0166 0.02245-0.02799 0.02799 0 0.05574 0.01106 0.02798 0.01106 0.03345 0.04461-0.28993 0.28434-0.44045 0.58541-0.14497 0.2955-0.14497 0.74152zm-0.37912 0.4739q0-0.37355 0.15053-0.72479 0.15053-0.35125 0.37355-0.66904-0.20627 0.0055-0.41258-0.03902-0.20071-0.04461-0.407-0.04461-0.16726 0-0.26761 0.10592-0.09479 0.10035-0.14496 0.25088-0.05018 0.15053-0.0669 0.32338-0.0166 0.17282-0.0166 0.31222 0 0.23416 0.06134 0.4516 0.06134 0.21187 0.15613 0.37354 0.10035 0.15609 0.21743 0.25088t0.22303 0.09479q0.11152 0 0.2286-0.07806-0.09479-0.2955-0.09479-0.60771zm0.4962 0.11151q0-0.10592 0.04461-0.17842 0.04461-0.07247 0.11708-0.12824 0.08363 0 0.07247 0.06134-0.15053 0.10592-0.15053 0.24532 0 0.25088 0.17842 0.39585 0.0055 0.02245-0.0055 0.03902-0.01106 0.01106-0.02245 0.02245-0.07247-0.10035-0.15609-0.21743-0.07806-0.12264-0.07806-0.23975zm-0.76382 0.42372q-0.0166 0.02799-0.02799 0.03345-0.17842-0.16169-0.26761-0.37912-0.08363-0.21743-0.08363-0.43487 0-0.0669 0.0166-0.15053 0.02245-0.08919 0.0669-0.17282 0.04461-0.08363 0.11708-0.15609 0.07247-0.07247 0.17285-0.11152 0.07806 0.03902 0.09479 0.11708-0.19514 0.01106-0.30106 0.19514-0.10592 0.17842-0.10592 0.4293 0 0.17842 0.09479 0.3401 0.09479 0.16169 0.223 0.28993z"/>
                <path d="m40.108 84.275q0 0.3401 0.0669 0.59098 0.07247 0.25088 0.17842 0.45718 0.08363 0.14497 0.15609 0.26761 0.07807 0.11708 0.1338 0.2286 0.06134 0.11151 0.09479 0.22859 0.03901 0.11708 0.03901 0.25088 0 0.223-0.07806 0.45718-0.07806 0.23416-0.223 0.42372-0.14497 0.18955-0.35682 0.30662-0.21187 0.12264-0.47948 0.12264-0.17282 0-0.32338-0.07806-0.15053-0.07807-0.28993-0.18955-0.1394-0.11152-0.27877-0.23976-0.13381-0.12264-0.27877-0.223-0.0166-0.0669 0.0166-0.08919 0.34009 0.12824 0.50735 0.25088 0.17285 0.12824 0.27877 0.22859 0.11152 0.10035 0.20071 0.16169 0.09479 0.06134 0.27317 0.06134 0.27877 0 0.4516-0.17842 0.17285-0.17842 0.17285-0.4739 0-0.17282-0.05574-0.34009-0.05018-0.16726-0.12824-0.32894-0.07247-0.16169-0.15613-0.32338-0.08363-0.16169-0.14497-0.32335-0.0055-0.02799-0.0166-0.05018-0.01106-0.02245-0.02245-0.04461-0.08363 0.03345-0.13937 0.10035-0.05574 0.0669-0.09479 0.15053-0.03902 0.07806-0.07247 0.16726-0.03345 0.08919-0.08363 0.16726-0.14496 0-0.30106-0.11152-0.1561-0.11708-0.28434-0.30106-0.12264-0.18954-0.20627-0.42372-0.07806-0.23416-0.07806-0.4739 0-0.15613 0.04461-0.35682 0.04461-0.20071 0.12264-0.407 0.07806-0.20627 0.18954-0.39585 0.11708-0.18958 0.25648-0.32894 0.09479-0.09479 0.16169-0.1561 0.07247-0.0669 0.13937-0.10035 0.07247-0.03902 0.15053-0.05018 0.08363-0.01659 0.20627-0.01659 0.14497 0 0.27877 0.06134 0.1394 0.05574 0.28993 0.05574 0.03345 0 0.0669-0.02245 0.03902-0.02245 0.07247-0.04461 0.0055-0.01106 0.0166-0.02245 0.01106-0.0166 0.02245-0.02798 0.02798 0 0.05574 0.01106 0.02798 0.01106 0.03345 0.04461-0.28993 0.28434-0.44045 0.58541-0.14497 0.30106-0.14497 0.74152zm-0.37912 0.4739q0-0.37912 0.15053-0.72479 0.15053-0.35125 0.37355-0.66904-0.20627 0.0055-0.41257-0.03902-0.20071-0.04461-0.407-0.04461-0.16726 0-0.26761 0.10592-0.09479 0.10036-0.14497 0.25088-0.05018 0.15053-0.0669 0.32338-0.0166 0.17282-0.0166 0.31222 0 0.23416 0.06134 0.4516 0.06134 0.21187 0.15609 0.37355 0.10035 0.15613 0.21743 0.25088 0.11708 0.09479 0.223 0.09479 0.11152 0 0.2286-0.07806-0.09479-0.2955-0.09479-0.60771zm0.4962 0.11151q0-0.11151 0.04461-0.17842 0.04461-0.0669 0.11708-0.12824 0.08363 0 0.07247 0.06134-0.15053 0.10592-0.15053 0.24532 0 0.25088 0.17842 0.39585 0.0055 0.02245-0.0055 0.03902-0.01106 0.01106-0.02245 0.02245-0.07247-0.10035-0.1561-0.21743-0.07806-0.12264-0.07806-0.23972zm-0.76382 0.42372q-0.0166 0.02799-0.02799 0.03345-0.17842-0.16169-0.26761-0.37912-0.08363-0.21743-0.08363-0.43488 0-0.0669 0.0166-0.15053 0.02245-0.08919 0.0669-0.17282 0.04461-0.08363 0.11708-0.1561 0.07247-0.07247 0.17282-0.11151 0.07806 0.03902 0.09479 0.11708-0.19514 0.0055-0.30106 0.18958-0.10592 0.18398-0.10592 0.43487 0 0.17285 0.09479 0.3401 0.09479 0.16169 0.22303 0.28993zm-0.14497 1.4496q-0.07806-0.0166-0.08919-0.10592 0.06134-0.11152 0.16169-0.19514 0.10035-0.07806 0.25648-0.07806 0.19514 0 0.35682 0.15053 0.16169 0.15053 0.16169 0.44603 0 0.12264-0.07247 0.23972-0.07247 0.12264-0.17282 0.18398-0.03345 0-0.04461-0.05574 0.1338-0.06134 0.18954-0.17282 0.06134-0.11152 0.06134-0.26761 0-0.07247-0.03902-0.14497-0.03902-0.07247-0.10592-0.1338-0.06134-0.05574-0.13937-0.09479-0.07247-0.03345-0.1394-0.03345-0.11152 0-0.223 0.07247-0.11152 0.07247-0.16169 0.18955z"/>
                <path d="m41.53 82.937q0.1338 0.01106 0.25088 0.10035 0.12264 0.08363 0.21743 0.21743 0.09479 0.12824 0.15053 0.27877t0.05574 0.28993q0 0.223-0.0669 0.39027-0.06134 0.16169-0.16169 0.28434-0.10035 0.12264-0.22859 0.21187-0.12268 0.08363-0.24532 0.1561l-0.04461-0.08363q0.1394-0.08363 0.27877-0.22859 0.14497-0.15053 0.14497-0.32338 0-0.16726-0.07247-0.2955-0.07247-0.1338-0.16726-0.22859-0.09479-0.10035-0.18398-0.1561-0.08919-0.06134-0.12264-0.08919v-0.033449q-0.20627 0.16726-0.30106 0.41815-0.08919 0.24532-0.08919 0.57983 0 0.17285 0.07806 0.36239 0.08363 0.18955 0.21187 0.35125 0.1338 0.1561 0.30106 0.26205 0.16726 0.10592 0.33452 0.10592 0.07247 0 0.10592-0.05018 0.03902-0.05018 0.13937-0.0669 0.0166 0.02245 0.0166 0.05574 0 0.03345 0.0055 0.06134-0.12824 0.05574-0.16726 0.20071-0.03902 0.14496-0.06134 0.32338-0.21743 0-0.45717-0.08919-0.23416-0.08919-0.43488-0.26204-0.20071-0.17842-0.32894-0.43487-0.12824-0.25648-0.12264-0.58541 0.0055-0.17842 0.07247-0.36797 0.0669-0.18955 0.17282-0.3624 0.11151-0.17842 0.24532-0.33452 0.13937-0.16169 0.28434-0.27877 0.03345-0.223 0.18955-0.37912zm0.05018 1.0259q0.03345 0.0669-0.05574 0.13937-0.08919 0.01106-0.14496 0.07247-0.05574 0.05574-0.08919 0.13937-0.02799 0.07806-0.03902 0.17282-0.01106 0.08919-0.01106 0.16726 0 0.19514 0.11708 0.3847 0.11708 0.18398 0.26761 0.28434 0.01106 0.05018-0.03902 0.05018-0.17842-0.1561-0.30666-0.32335-0.12824-0.17285-0.12824-0.45718 0-0.09479 0.02245-0.20627 0.02245-0.11708 0.07247-0.21187 0.05018-0.09479 0.1338-0.15609 0.08363-0.06134 0.20071-0.05574z"/>
            </g>
        </g>
    </g>
</svg>
